ply
format ascii 1.0
comment Created by Blender 2.91.0 - www.blender.org
element vertex 200
property float x
property float y
property float z
property uchar red
property uchar green
property uchar blue
property uchar alpha
element face 180
property list uchar uint vertex_indices
end_header
0.280066 -0.543292 0.414549 87 42 18 255
-0.280093 -0.748684 0.414549 87 42 18 255
0.280066 -0.748684 0.414549 87 42 18 255
-0.280093 -0.543292 0.414549 87 42 18 255
-0.280093 -0.748684 -0.705769 87 42 18 255
-0.280093 -0.543292 -0.705769 87 42 18 255
0.280066 -0.748684 -0.705769 87 42 18 255
0.280066 -0.543292 -0.705769 87 42 18 255
0.046666 1.743407 -1.956507 87 42 18 255
-0.046694 -0.643028 -0.591995 87 42 18 255
0.046666 -0.643028 -0.591995 87 42 18 255
-0.046694 1.743407 -1.956507 87 42 18 255
-0.046694 -0.643028 -0.685354 87 42 18 255
-0.046694 1.743407 -2.049867 87 42 18 255
0.046666 -0.643028 -0.685354 87 42 18 255
-0.046694 -0.643028 -0.685354 255 255 255 255
0.046666 -0.643028 -0.591995 255 255 255 255
-0.046694 -0.643028 -0.591995 255 255 255 255
-0.046694 1.743407 -1.956507 255 255 255 255
0.046666 1.743407 -2.049867 255 255 255 255
-0.046694 1.743407 -2.049867 255 255 255 255
0.249459 -0.570154 0.387119 87 42 18 255
0.474868 1.774705 0.837369 87 42 18 255
0.174742 -0.556737 0.389264 87 42 18 255
0.475258 1.795641 0.745971 87 42 18 255
0.175132 -0.535801 0.297865 87 42 18 255
0.249849 -0.549218 0.295720 87 42 18 255
0.549975 1.782224 0.743825 87 42 18 255
0.174742 -0.556737 0.389264 100 62 41 255
0.249849 -0.549218 0.295720 100 62 40 255
0.249459 -0.570154 0.387119 101 62 41 255
0.475258 1.795641 0.745971 255 255 255 255
0.549585 1.761288 0.835224 255 255 255 255
0.549975 1.782224 0.743825 255 255 255 255
0.560146 1.927933 0.846305 46 21 8 255
-0.560172 1.722542 0.846305 46 21 8 255
0.560146 1.722542 0.846305 46 21 8 255
-0.560172 1.927933 0.846305 51 24 9 255
-0.560173 1.722542 -0.201970 87 42 18 255
0.560145 1.722542 -0.201970 87 42 18 255
0.140026 1.927933 -2.064272 87 42 18 255
0.560145 1.927933 -0.201970 87 42 18 255
0.560146 1.722542 0.846305 70 34 14 255
-0.560173 1.927933 -0.201970 87 42 18 255
-0.140054 1.927933 -2.064272 87 42 18 255
0.140026 1.722542 -2.064272 87 42 18 255
-0.140054 1.722542 -2.064272 87 42 18 255
-0.481755 1.761288 0.835224 87 42 18 255
-0.247376 -0.556737 0.389264 87 42 18 255
-0.168635 -0.570154 0.387119 87 42 18 255
-0.560106 1.795641 0.745971 87 42 18 255
-0.246987 -0.535801 0.297865 87 42 18 255
-0.481365 1.782224 0.743825 87 42 18 255
-0.168245 -0.549218 0.295720 87 42 18 255
-0.247376 -0.556737 0.389264 105 69 48 255
-0.168245 -0.549218 0.295720 104 67 46 255
-0.168635 -0.570154 0.387119 105 67 47 255
-0.560106 1.795641 0.745971 255 255 255 255
-0.481755 1.761288 0.835224 255 255 255 255
-0.481365 1.782224 0.743825 255 255 255 255
0.136014 1.927752 -2.062937 87 42 18 255
-0.144066 1.722360 -2.062937 87 42 18 255
0.136014 1.722360 -2.062937 87 42 18 255
-0.144066 1.927752 -2.062937 87 42 18 255
-0.564185 1.722360 -3.575933 87 42 18 255
-0.564185 1.927752 -3.575933 186 159 123 255
-0.206231 1.722360 -3.361200 186 159 123 255
-0.564185 1.722360 -3.575933 186 159 123 255
0.556133 1.927752 -3.575933 87 42 18 255
0.556133 1.722360 -3.575933 87 42 18 255
-0.206231 1.722360 -3.361200 255 255 255 255
0.234166 1.722360 -3.361200 255 255 255 255
0.136014 1.722360 -2.062937 254 15 55 255
0.136014 1.927752 -2.062937 254 15 55 255
0.234166 1.927752 -3.361200 255 255 255 255
-0.203815 1.927752 -3.361200 255 255 254 255
0.011247 1.722360 -3.575933 186 159 123 255
0.234166 1.927752 -3.361200 186 159 123 255
0.234166 1.722360 -3.361200 186 159 123 255
0.556133 1.722360 -3.575933 186 159 123 255
0.008704 1.927752 -3.575933 186 159 123 255
-0.562080 1.927528 0.847780 243 20 53 255
-1.495678 1.722136 1.333667 253 16 54 255
-0.562080 1.722136 0.847780 248 18 54 255
-1.495678 1.722136 0.199589 255 255 255 255
-2.293342 1.927528 -0.144449 255 255 255 255
-1.495678 1.927528 0.199589 255 255 255 255
-0.562080 1.722136 -0.144450 255 255 255 255
-0.562080 1.927528 -0.144450 186 159 123 255
-0.562080 1.722136 0.847780 186 159 123 255
-0.562080 1.722136 -0.144450 186 159 123 255
-0.562080 1.722136 0.847780 254 16 56 255
-1.495678 1.722136 1.333667 254 15 55 255
-0.562080 1.927528 0.847780 254 15 55 255
-0.562080 1.927528 -0.144450 219 207 193 255
-2.293342 1.722136 -0.144449 255 255 255 255
-3.044311 1.927528 0.117084 255 255 255 255
-2.293341 1.722136 1.392677 254 15 55 255
-2.293341 1.927528 1.392677 254 15 55 255
-1.495678 1.927528 1.333667 254 16 56 255
-1.495678 1.927528 1.333667 254 15 55 255
-2.293341 1.722136 1.392677 254 15 55 255
-3.879176 1.927528 0.778883 254 15 55 255
-3.044311 1.927528 1.178456 254 15 55 255
-3.044311 1.722136 0.117084 255 255 255 255
-2.293341 1.927528 1.392677 254 15 55 255
-3.044311 1.722136 1.178456 254 15 55 255
-3.879176 1.927528 -0.144449 255 255 255 255
-4.528804 1.927528 -0.069368 255 255 255 255
-3.044311 1.927528 1.178456 254 15 55 255
-3.879176 1.722136 0.778883 249 17 54 255
-3.879176 1.722136 0.778883 254 15 55 255
-3.879176 1.722136 -0.144449 253 252 252 255
-4.528804 1.927528 -0.069368 89 44 20 255
-4.528804 1.722136 -0.128656 89 44 20 255
-4.528804 1.722136 -0.069368 89 44 20 255
-3.879176 1.927528 0.778883 254 15 55 255
-4.528804 1.722136 -0.069368 254 15 55 255
-3.879176 1.722136 -0.144449 254 254 254 255
-4.528804 1.927528 -0.128656 255 255 255 255
-4.528804 1.722136 -0.069368 254 15 55 255
-4.528804 1.722136 -0.128656 254 15 55 255
1.495118 1.723709 1.332799 254 15 55 255
0.561520 1.929101 0.846913 254 15 55 255
0.561520 1.723709 0.846913 254 15 55 255
2.292782 1.929101 -0.145317 255 255 255 255
1.495118 1.723709 0.198721 255 255 255 255
1.495118 1.929101 0.198721 255 255 255 255
0.561520 1.723709 -0.145317 254 254 254 255
0.561520 1.723709 0.846913 186 159 123 255
0.561520 1.929101 -0.145317 186 159 123 255
0.561520 1.723709 -0.145317 186 159 123 255
0.561520 1.723709 0.846913 254 15 55 255
1.495118 1.723709 1.332799 254 15 55 255
0.561520 1.929101 0.846913 254 15 55 255
1.495118 1.929101 1.332799 254 18 57 255
3.043751 1.929101 0.116216 255 255 255 255
2.292782 1.723709 -0.145317 255 255 255 255
2.292782 1.723709 1.391810 254 15 55 255
2.292782 1.929101 1.391810 254 15 55 255
2.292782 1.723709 1.391810 254 15 55 255
1.495118 1.929101 1.332799 254 15 55 255
3.878617 1.929101 0.778014 254 15 55 255
3.043751 1.929101 1.177588 254 15 55 255
3.043751 1.723709 0.116216 255 255 255 255
3.043751 1.723709 1.177588 254 15 55 255
2.292782 1.929101 1.391810 254 15 55 255
4.528243 1.929101 -0.070236 254 15 55 255
3.878617 1.929101 -0.145317 253 252 251 255
3.878617 1.723709 0.778014 254 16 55 255
3.043751 1.929101 1.177588 254 15 55 255
3.878617 1.929101 -0.145317 255 255 255 255
3.043751 1.723709 0.116216 238 233 227 255
3.878617 1.723709 0.778014 254 23 58 255
3.043751 1.723709 1.177588 254 17 56 255
4.528243 1.723709 -0.129525 254 15 55 255
4.528243 1.929101 -0.070236 254 15 55 255
4.528243 1.723709 -0.070236 254 15 55 255
4.528243 1.723709 -0.070236 250 46 68 255
3.878617 1.929101 0.778014 254 15 55 255
4.528243 1.929101 -0.129525 255 255 255 255
3.878617 1.723709 -0.145317 255 255 255 255
4.528243 1.723709 -0.070236 254 16 55 255
0.046666 1.743407 -2.049867 87 42 18 255
0.046666 -0.643028 -0.685354 255 255 255 255
0.046666 1.743407 -1.956507 255 255 255 255
0.549585 1.761288 0.835224 87 42 18 255
0.175132 -0.535801 0.297865 100 61 40 255
0.474868 1.774705 0.837369 255 255 255 255
-0.560172 1.927933 0.846305 46 21 8 255
0.560146 1.927933 0.846305 51 23 9 255
-0.560496 1.774705 0.837369 87 42 18 255
-0.246987 -0.535801 0.297865 105 68 47 255
-0.560496 1.774705 0.837369 255 255 255 255
-0.564185 1.927752 -3.575933 87 42 18 255
-0.203815 1.927752 -3.361200 186 159 123 255
-0.144066 1.722360 -2.062937 254 15 55 255
0.011247 1.722360 -3.575933 255 255 255 255
-0.564185 1.722360 -3.575933 229 220 212 255
0.556133 1.722360 -3.575933 255 255 255 255
-0.564185 1.927752 -3.575933 254 254 254 255
-0.144066 1.927752 -2.062937 254 18 56 255
0.008704 1.927752 -3.575933 255 255 255 255
0.556133 1.927752 -3.575933 254 254 254 255
0.556133 1.927752 -3.575933 186 159 123 255
-0.562080 1.927528 -0.144450 255 255 255 255
-0.562080 1.927528 0.847780 186 159 123 255
-3.044311 1.722136 1.178456 254 15 55 255
-4.528804 1.927528 -0.128656 89 44 20 255
-4.528804 1.927528 -0.069368 253 15 55 255
-4.528804 1.722136 -0.128656 251 249 248 255
0.561520 1.929101 -0.145317 255 255 255 255
0.561520 1.929101 0.846913 186 159 123 255
0.561520 1.723709 -0.145317 255 255 255 255
0.561520 1.929101 -0.145317 255 254 254 255
4.528243 1.929101 -0.129525 254 21 57 255
4.528243 1.929101 -0.129525 254 15 55 255
4.528243 1.929101 -0.070236 250 42 66 255
4.528243 1.723709 -0.129525 255 255 255 255
4.528243 1.723709 -0.129525 254 16 56 255
3 0 1 2
3 3 4 1
3 5 6 4
3 7 2 6
3 1 6 2
3 3 7 5
3 8 9 10
3 11 12 9
3 13 14 12
3 14 8 10
3 15 16 17
3 18 19 20
3 21 22 23
3 23 24 25
3 24 26 25
3 27 21 26
3 28 29 30
3 31 32 33
3 34 35 36
3 37 38 35
3 39 40 41
3 41 42 39
3 38 42 35
3 37 41 43
3 44 45 46
3 38 45 39
3 43 40 44
3 43 46 38
3 47 48 49
3 48 50 51
3 51 52 53
3 52 49 53
3 54 55 56
3 57 58 59
3 60 61 62
3 63 64 61
3 65 66 67
3 68 62 69
3 70 71 72
3 73 74 75
3 76 77 78
3 77 79 78
3 66 80 76
3 81 82 83
3 84 85 86
3 86 87 84
3 88 89 90
3 84 91 92
3 86 93 94
3 95 96 85
3 84 97 95
3 86 98 99
3 100 101 82
3 96 102 103
3 97 104 95
3 98 96 103
3 105 106 101
3 107 108 102
3 109 110 106
3 104 107 96
3 104 111 112
3 113 114 115
3 116 117 110
3 118 119 107
3 112 120 121
3 122 123 124
3 125 126 127
3 128 127 126
3 129 130 131
3 132 126 133
3 127 134 135
3 136 137 125
3 126 138 133
3 139 127 135
3 140 141 122
3 142 136 143
3 144 138 137
3 139 136 125
3 145 146 140
3 147 148 142
3 149 150 145
3 151 152 136
3 144 153 154
3 155 156 157
3 158 159 149
3 160 161 151
3 161 162 153
3 0 3 1
3 3 5 4
3 5 7 6
3 7 0 2
3 1 4 6
3 3 0 7
3 8 11 9
3 11 13 12
3 13 163 14
3 14 163 8
3 15 164 16
3 18 165 19
3 21 166 22
3 23 22 24
3 24 27 26
3 27 166 21
3 28 167 29
3 31 168 32
3 34 169 35
3 37 43 38
3 39 45 40
3 41 170 42
3 38 39 42
3 37 170 41
3 44 40 45
3 38 46 45
3 43 41 40
3 43 44 46
3 47 171 48
3 48 171 50
3 51 50 52
3 52 47 49
3 54 172 55
3 57 173 58
3 60 63 61
3 63 174 64
3 65 175 66
3 68 60 62
3 72 176 70
3 70 177 71
3 176 178 70
3 71 179 72
3 75 180 181
3 181 73 75
3 74 182 75
3 73 183 74
3 76 80 77
3 77 184 79
3 66 175 80
3 81 100 82
3 84 95 85
3 86 185 87
3 88 186 89
3 84 87 91
3 86 99 93
3 95 104 96
3 84 92 97
3 86 85 98
3 100 105 101
3 96 107 102
3 97 187 104
3 98 85 96
3 105 109 106
3 107 119 108
3 109 116 110
3 104 118 107
3 104 187 111
3 113 188 114
3 116 189 117
3 118 190 119
3 112 111 120
3 122 141 123
3 125 137 126
3 128 191 127
3 129 192 130
3 132 193 126
3 127 194 134
3 136 152 137
3 126 137 138
3 139 125 127
3 140 146 141
3 142 148 136
3 144 154 138
3 139 143 136
3 145 150 146
3 147 195 148
3 149 159 150
3 151 161 152
3 144 161 153
3 155 196 156
3 158 197 159
3 160 198 161
3 161 199 162
